<?xml version="1.0" encoding="UTF-8" standalone="no"?>
<svg
   xmlns:dc="http://purl.org/dc/elements/1.1/"
   xmlns:cc="http://creativecommons.org/ns#"
   xmlns:rdf="http://www.w3.org/1999/02/22-rdf-syntax-ns#"
   xmlns:svg="http://www.w3.org/2000/svg"
   xmlns="http://www.w3.org/2000/svg"
   width="134.85425mm"
   height="27.809227mm"
   viewBox="0 0 134.85425 27.809227"
   version="1.1"
   id="svg8">
  <defs
     id="defs2" />
  <metadata
     id="metadata5">
    <rdf:RDF>
      <cc:Work
         rdf:about="">
        <dc:format>image/svg+xml</dc:format>
        <dc:type
           rdf:resource="http://purl.org/dc/dcmitype/StillImage" />
        <dc:title></dc:title>
      </cc:Work>
    </rdf:RDF>
  </metadata>
  <g
     id="layer1"
     transform="translate(-216.88656,191.9692)">
    <g
       id="g927"
       transform="matrix(0.03527778,0,0,-0.03527778,216.88656,-164.15997)">
      <path
         d="m 1472.38,487.969 c -84.25,29.054 -134.44,40.273 -183.79,40.273 -51.91,0 -89.61,-18.992 -89.61,-41.453 0,-68 292.29,-53.359 292.29,-210.508 0,-86.496 -86.11,-127.715 -215.44,-127.715 -101.27,0 -151.47,20.508 -209.33,43.594 v 97.07 c 83.38,-42.941 134.44,-58.117 198.26,-58.117 55.32,0 88.09,25.664 88.09,52.09 0,73.945 -290.78,46.856 -290.78,208.645 0,77.929 79.32,118.933 213.76,118.933 64.66,0 123.37,-10.554 196.55,-35 v -87.812"
         style="fill:#104076;fill-opacity:1;fill-rule:nonzero;stroke:none"
         id="path929" />
      <path
         d="m 1721.37,154.512 h -122.16 v 450.332 h 122.16 V 154.512"
         style="fill:#104076;fill-opacity:1;fill-rule:nonzero;stroke:none"
         id="path931" />
      <path
         d="m 1974.15,154.512 h -126.64 v 450.332 h 116.22 l 273.64,-281.348 v 281.348 h 122.15 V 154.512 h -102.17 l -283.2,296.054 V 154.512"
         style="fill:#104076;fill-opacity:1;fill-rule:nonzero;stroke:none"
         id="path933" />
      <path
         d="m 3350.82,154.512 h -388.61 v 450.332 h 389.03 V 526.816 H 3082.86 V 426.367 h 241.79 V 346.836 H 3082.86 V 234.063 h 267.96 v -79.551"
         style="fill:#104076;fill-opacity:1;fill-rule:nonzero;stroke:none"
         id="path935" />
      <path
         d="M 3822.64,526.816 H 3550.98 V 420.441 h 242.97 V 340.879 H 3550.98 V 154.512 h -120.62 v 450.332 h 392.28 v -78.028"
         style="fill:#104076;fill-opacity:1;fill-rule:nonzero;stroke:none"
         id="path937" />
      <path
         d="m 383.328,65.7734 c 8.645,-0.3515 17.512,-0.5273 26.594,-0.5273 293.445,0 364.824,192.2659 364.824,350.7889 0,150.637 -64.453,331.738 -322.629,349.395 l -15.613,-42.938 c -8.652,0.36 -17.52,0.547 -26.582,0.547 -293.457,0 -364.8439,-192.266 -364.8439,-350.812 0,-150.614 64.4529,-331.7387 322.6559,-349.3754 z M 819.844,394.141 C 819.844,216.016 739.637,0 409.922,0 80.1953,0 0,216.016 0,394.141 c 0,178.125 80.1953,394.152 409.922,394.152 329.715,0 409.922,-216.027 409.922,-394.152"
         style="fill:#104076;fill-opacity:1;fill-rule:nonzero;stroke:none"
         id="path939" />
      <path
         d="M 399.324,620.441 C 200.461,615.891 151.66,482.52 151.66,372.227 c 0,-111.211 49.649,-245.926 252.86,-248.27 l 15.968,43.887 c 198.867,4.539 247.676,137.898 247.676,248.191 0,111.231 -49.648,245.938 -252.851,248.281 z m 322.141,-226.3 c 0,-131.805 -60.969,-291.688 -311.543,-291.688 -250.598,0 -311.5431,159.883 -311.5431,291.688 0,131.808 60.9451,291.672 311.5431,291.672 250.574,0 311.543,-159.864 311.543,-291.672"
         style="fill:#104076;fill-opacity:1;fill-rule:nonzero;stroke:none"
         id="path941" />
      <path
         d="m 436.309,211.34 25.808,70.867 c 20.949,57.559 9.192,95.469 -52.195,111.934 -61.406,16.445 -73.164,54.355 -52.207,111.933 l 25.801,70.86 c 8.418,0.625 17.207,0.957 26.406,0.957 161.551,0 200.859,-100.711 200.859,-183.75 0,-78.321 -34.98,-172.344 -174.472,-182.801"
         style="fill:#104076;fill-opacity:1;fill-rule:nonzero;stroke:none"
         id="path943" />
      <path
         d="m 2721.8,154.512 v 370.801 h 178.56 v 79.531 h -480 v -79.531 h 179.86 V 154.512 h 121.58"
         style="fill:#104076;fill-opacity:1;fill-rule:nonzero;stroke:none"
         id="path945" />
    </g>
  </g>
</svg>
