<?xml version="1.0" encoding="UTF-8"?>
<!-- Generator: Adobe Illustrator 24.0.0, SVG Export Plug-In . SVG Version: 6.00 Build 0)  -->
<svg version="1.1" id="Layer_1" xmlns="http://www.w3.org/2000/svg" xmlns:xlink="http://www.w3.org/1999/xlink" x="0px" y="0px" viewBox="0 0 4000 1608" enable-background="new 0 0 4000 1608" xml:space="preserve">
<g>
	<path fill="#F5333F" d="M3489.565,1123.674l82.941,47.781c4.917,2.832,7.944,8.077,7.939,13.751l-0.091,95.72   c-0.008,8.126-8.802,13.204-15.844,9.147l-82.941-47.781c-4.917-2.832-7.837-8.093-7.837-13.751l-0.011-95.72   C3473.721,1124.712,3482.523,1119.617,3489.565,1123.674z M3556.218,1008.292l82.85,47.938c4.911,2.842,10.967,2.842,15.878,0   l82.85-47.938c7.034-4.07,7.034-14.225,0-18.295l-82.85-47.938c-4.911-2.842-10.967-2.842-15.878,0l-82.85,47.938   C3549.184,994.067,3549.184,1004.222,3556.218,1008.292z M3256.004,988.844l-186.48-107.9c-5.525-3.197-12.338-3.197-17.863,0   l-186.48,107.9c-7.913,4.579-7.913,16.003,0,20.581l186.48,107.9c5.525,3.197,12.338,3.197,17.863,0l186.48-107.9   C3263.917,1004.847,3263.917,993.423,3256.004,988.844z M3328.575,1121.446l-124.521,71.735c-3.689,2.125-5.961,6.061-5.958,10.318   l-0.012,143.706c0.006,6.098,6.753,9.908,12.037,6.864l124.521-71.735c3.689-2.125,5.826-6.061,5.822-10.318l0-143.706   C3340.458,1122.212,3333.859,1118.401,3328.575,1121.446z M3943.22,21.653l-448.063,258.124   c-13.276,7.648-21.451,21.808-21.437,37.129l0.005,517.096c0.021,21.942,24.25,35.652,43.263,24.699l448.063-258.124   c13.276-7.648,20.953-21.808,20.938-37.129L3986,46.352C3985.979,24.41,3962.234,10.7,3943.22,21.653z M2984.633,302.109   l0.002,359.173c-0.01,10.642,5.327,20.478,14.548,25.79l311.223,179.292c13.207,7.608,30.044-1.915,30.059-17.156l-0.004-359.173   c0.01-10.642-5.668-20.478-14.89-25.79l-311.223-179.292C3001.141,277.345,2984.647,286.868,2984.633,302.109z"/>
	<g>
		<g>
			<path fill="#F5333F" d="M2645.947,1029.1c-3.295-8.24-10.305-11.249-18.126-6.591c-7.821,4.658-154.886,92.276-154.886,92.276     v-80.74c0-9.065-5.77-12.36-14.006-9.065l-47.788,17.301c-6.591,2.47-9.061,7.416-9.061,14.006v355.001     c0,7.415,4.941,12.356,12.356,12.356h46.138c7.415,0,12.361-4.941,12.361-12.356v-217.443c0,0,173.4-107.019,180.427-111.227     c7.023-4.208,10.618-7.764,7.411-15.651C2657.262,1058.32,2645.947,1029.1,2645.947,1029.1"/>
			<path fill="#F5333F" d="M397.426,1200.374c0-98.867-67.555-182.077-180.427-182.077c-111.223,0-203.499,79.92-203.499,210.089     c0,118.638,77.445,205.144,207.619,205.144c59.319,0,118.638-20.596,163.126-60.144c5.766-4.941,5.766-11.531,1.645-17.301     l-22.242-34.602c-4.12-6.591-10.711-7.411-17.301-2.47c-40.372,29.662-81.565,44.488-125.229,44.488     c-83.211,0-128.524-54.374-134.294-122.754h298.418c7.634,0,12.183-5.532,12.183-12.195V1200.374z M91.77,1178.952     c15.651-56.844,60.144-91.447,122.758-91.447c68.38,0,104.628,40.368,107.927,91.447H91.77z"/>
			<path fill="#F5333F" d="M799.029,1588.42h46.138c7.411,0,12.356-4.945,12.356-12.361v-542.107c0-9.061-5.766-12.356-14.831-9.061     l-46.958,17.301c-6.591,2.47-9.065,7.411-9.065,14.006v17.301c-25.537-34.602-75.795-55.203-130.169-55.203     c-107.927,0-201.849,80.74-201.849,207.619c0,112.048,72.5,207.614,197.729,207.614c56.849,0,111.223-25.537,134.289-54.374     v196.904C786.669,1583.475,791.614,1588.42,799.029,1588.42 M657.32,1363.5c-70.025,0-130.169-47.783-130.169-138.41     c0-90.626,60.144-137.585,130.169-137.585c73.325,0,130.174,46.958,130.174,137.585     C787.494,1316.542,730.645,1363.5,657.32,1363.5"/>
			<path fill="#F5333F" d="M1092.216,1433.53c42.843,0,89.806-14.006,120.288-58.494v36.252c0,7.411,4.941,12.356,12.356,12.356     h46.138c7.415,0,12.356-4.945,12.356-12.356v-376.511c0-9.886-5.766-13.181-14.006-9.886l-47.783,17.301     c-6.59,2.47-9.061,7.411-9.061,14.006v197.729c0,70.03-45.313,109.573-107.107,109.573c-60.965,0-102.157-38.723-102.157-109.573     v-219.975c0-9.061-5.77-12.356-14.006-9.061l-47.783,17.301c-6.595,2.47-9.065,7.411-9.065,14.006v200.199     C932.385,1373.386,1003.24,1433.53,1092.216,1433.53"/>
			<g>
				<path fill="#F5333F" d="M1379.742,982.874l50.254-16.481c8.24-2.47,11.536-6.591,11.536-14.826v-60.144      c0-7.415-5.766-13.181-14.831-9.886l-49.433,18.126c-7.411,2.47-11.531,5.766-11.531,14.002v57.674      C1365.736,980.399,1370.676,986.169,1379.742,982.874"/>
				<path fill="#F5333F" d="M1380.567,1423.644h46.134c7.415,0,12.36-4.945,12.36-12.356v-377.336c0-9.061-5.77-12.356-14.006-9.061      l-47.788,17.301c-6.591,2.47-9.061,7.411-9.061,14.006v355.089C1368.206,1418.699,1373.151,1423.644,1380.567,1423.644"/>
			</g>
			<path fill="#F5333F" d="M1536.26,1423.644h46.138c7.415,0,12.356-4.945,12.356-12.356v-213.384     c0-70.03,45.313-109.577,107.107-109.577c60.964,0,102.157,38.723,102.157,109.577v213.384c0,7.411,4.945,12.356,12.361,12.356     h46.133c7.415,0,12.361-4.945,12.361-12.356v-215.855c0-116.993-70.855-177.137-159.831-177.137     c-42.843,0-89.801,14.006-120.288,58.498v-42.843c0-9.061-5.766-12.356-14.006-9.061l-47.783,17.301     c-6.59,2.47-9.061,7.411-9.061,14.006v355.089C1523.904,1418.699,1528.844,1423.644,1536.26,1423.644"/>
			<path fill="#F5333F" d="M2138.887,1018.296c-118.638,0-203.494,88.156-203.494,207.619c0,119.459,84.856,207.614,203.494,207.614     c118.638,0,202.674-88.156,202.674-207.614C2341.561,1106.452,2257.525,1018.296,2138.887,1018.296 M2138.887,1364.325     c-81.565,0-130.994-60.964-130.994-138.41s49.429-138.41,130.994-138.41c80.74,0,130.173,60.964,130.173,138.41     S2219.627,1364.325,2138.887,1364.325"/>
		</g>
	</g>
</g>
</svg>