<?xml version="1.0" encoding="UTF-8" standalone="no"?>
<svg
   xmlns:dc="http://purl.org/dc/elements/1.1/"
   xmlns:cc="http://creativecommons.org/ns#"
   xmlns:rdf="http://www.w3.org/1999/02/22-rdf-syntax-ns#"
   xmlns:svg="http://www.w3.org/2000/svg"
   xmlns="http://www.w3.org/2000/svg"
   xmlns:xlink="http://www.w3.org/1999/xlink"
   xmlns:sodipodi="http://sodipodi.sourceforge.net/DTD/sodipodi-0.dtd"
   xmlns:inkscape="http://www.inkscape.org/namespaces/inkscape"
   inkscape:export-ydpi="96"
   inkscape:export-xdpi="96"
   inkscape:export-filename="C:\Users\wjb\Desktop\flownet_logo_1920.png"
   sodipodi:docname="flownet_logo.svg"
   inkscape:version="1.0 (4035a4fb49, 2020-05-01)"
   id="svg8"
   version="1.1"
   viewBox="0 0 508 285.75"
   height="1080"
   width="1920">
  <defs
     id="defs2">
    <linearGradient
       id="linearGradient3356"
       inkscape:collect="always">
      <stop
         id="stop3352"
         offset="0"
         style="stop-color:#00ffaf;stop-opacity:1" />
      <stop
         id="stop3354"
         offset="1"
         style="stop-color:#0700ff;stop-opacity:1" />
    </linearGradient>
    <rect
       id="rect16"
       height="47.306705"
       width="13.363476"
       y="101.56242"
       x="70.291885" />
    <linearGradient
       gradientUnits="userSpaceOnUse"
       y2="71.083618"
       x2="96.452263"
       y1="71.083618"
       x1="15.709868"
       id="linearGradient3382"
       xlink:href="#linearGradient3356"
       inkscape:collect="always" />
    <linearGradient
       gradientUnits="userSpaceOnUse"
       y2="75.665504"
       x2="95.342079"
       y1="75.665504"
       x1="34.217159"
       id="linearGradient3390"
       xlink:href="#linearGradient3356"
       inkscape:collect="always" />
    <linearGradient
       gradientTransform="matrix(2.0688311,0,0,2.0688311,-2.6518331,-5.9301785)"
       gradientUnits="userSpaceOnUse"
       y2="75.665504"
       x2="95.342079"
       y1="75.665504"
       x1="34.217159"
       id="linearGradient3398"
       xlink:href="#linearGradient3356"
       inkscape:collect="always" />
    <linearGradient
       gradientUnits="userSpaceOnUse"
       y2="71.541405"
       x2="94.215775"
       y1="71.541405"
       x1="18.304047"
       id="linearGradient3408"
       xlink:href="#linearGradient3356"
       inkscape:collect="always" />
    <linearGradient
       y2="71.541405"
       x2="94.215775"
       y1="71.541405"
       x1="18.304047"
       gradientUnits="userSpaceOnUse"
       id="linearGradient4106"
       xlink:href="#linearGradient3356"
       inkscape:collect="always" />
    <linearGradient
       y2="71.541405"
       x2="94.215775"
       y1="71.541405"
       x1="18.304047"
       gradientUnits="userSpaceOnUse"
       id="linearGradient4108"
       xlink:href="#linearGradient3356"
       inkscape:collect="always" />
    <linearGradient
       y2="71.541405"
       x2="94.215775"
       y1="71.541405"
       x1="18.304047"
       gradientUnits="userSpaceOnUse"
       id="linearGradient4110"
       xlink:href="#linearGradient3356"
       inkscape:collect="always" />
    <linearGradient
       y2="71.541405"
       x2="94.215775"
       y1="71.541405"
       x1="18.304047"
       gradientUnits="userSpaceOnUse"
       id="linearGradient4112"
       xlink:href="#linearGradient3356"
       inkscape:collect="always" />
    <linearGradient
       y2="71.541405"
       x2="94.215775"
       y1="71.541405"
       x1="18.304047"
       gradientUnits="userSpaceOnUse"
       id="linearGradient4114"
       xlink:href="#linearGradient3356"
       inkscape:collect="always" />
    <linearGradient
       y2="71.541405"
       x2="94.215775"
       y1="71.541405"
       x1="18.304047"
       gradientUnits="userSpaceOnUse"
       id="linearGradient4116"
       xlink:href="#linearGradient3356"
       inkscape:collect="always" />
    <linearGradient
       y2="71.541405"
       x2="94.215775"
       y1="71.541405"
       x1="18.304047"
       gradientUnits="userSpaceOnUse"
       id="linearGradient4118"
       xlink:href="#linearGradient3356"
       inkscape:collect="always" />
    <linearGradient
       y2="71.541405"
       x2="94.215775"
       y1="71.541405"
       x1="18.304047"
       gradientUnits="userSpaceOnUse"
       id="linearGradient4120"
       xlink:href="#linearGradient3356"
       inkscape:collect="always" />
    <linearGradient
       y2="71.541405"
       x2="94.215775"
       y1="71.541405"
       x1="18.304047"
       gradientUnits="userSpaceOnUse"
       id="linearGradient4122"
       xlink:href="#linearGradient3356"
       inkscape:collect="always" />
    <linearGradient
       y2="71.541405"
       x2="94.215775"
       y1="71.541405"
       x1="18.304047"
       gradientUnits="userSpaceOnUse"
       id="linearGradient4124"
       xlink:href="#linearGradient3356"
       inkscape:collect="always" />
    <linearGradient
       y2="71.083618"
       x2="96.452263"
       y1="71.083618"
       x1="15.709868"
       gradientUnits="userSpaceOnUse"
       id="linearGradient4126"
       xlink:href="#linearGradient3356"
       inkscape:collect="always" />
    <linearGradient
       y2="71.083618"
       x2="96.452263"
       y1="71.083618"
       x1="15.709868"
       gradientUnits="userSpaceOnUse"
       id="linearGradient4128"
       xlink:href="#linearGradient3356"
       inkscape:collect="always" />
    <linearGradient
       y2="71.083618"
       x2="96.452263"
       y1="71.083618"
       x1="15.709868"
       gradientUnits="userSpaceOnUse"
       id="linearGradient4130"
       xlink:href="#linearGradient3356"
       inkscape:collect="always" />
    <linearGradient
       y2="71.083618"
       x2="96.452263"
       y1="71.083618"
       x1="15.709868"
       gradientUnits="userSpaceOnUse"
       id="linearGradient4132"
       xlink:href="#linearGradient3356"
       inkscape:collect="always" />
    <linearGradient
       y2="71.083618"
       x2="96.452263"
       y1="71.083618"
       x1="15.709868"
       gradientUnits="userSpaceOnUse"
       id="linearGradient4134"
       xlink:href="#linearGradient3356"
       inkscape:collect="always" />
    <linearGradient
       y2="71.083618"
       x2="96.452263"
       y1="71.083618"
       x1="15.709868"
       gradientUnits="userSpaceOnUse"
       id="linearGradient4136"
       xlink:href="#linearGradient3356"
       inkscape:collect="always" />
    <linearGradient
       y2="71.083618"
       x2="96.452263"
       y1="71.083618"
       x1="15.709868"
       gradientUnits="userSpaceOnUse"
       id="linearGradient4138"
       xlink:href="#linearGradient3356"
       inkscape:collect="always" />
    <linearGradient
       y2="71.083618"
       x2="96.452263"
       y1="71.083618"
       x1="15.709868"
       gradientUnits="userSpaceOnUse"
       id="linearGradient4140"
       xlink:href="#linearGradient3356"
       inkscape:collect="always" />
    <linearGradient
       y2="71.083618"
       x2="96.452263"
       y1="71.083618"
       x1="15.709868"
       gradientUnits="userSpaceOnUse"
       id="linearGradient4142"
       xlink:href="#linearGradient3356"
       inkscape:collect="always" />
    <linearGradient
       y2="71.083618"
       x2="96.452263"
       y1="71.083618"
       x1="15.709868"
       gradientUnits="userSpaceOnUse"
       id="linearGradient4144"
       xlink:href="#linearGradient3356"
       inkscape:collect="always" />
    <linearGradient
       y2="71.083618"
       x2="96.452263"
       y1="71.083618"
       x1="15.709868"
       gradientUnits="userSpaceOnUse"
       id="linearGradient4146"
       xlink:href="#linearGradient3356"
       inkscape:collect="always" />
    <linearGradient
       y2="71.083618"
       x2="96.452263"
       y1="71.083618"
       x1="15.709868"
       gradientUnits="userSpaceOnUse"
       id="linearGradient4148"
       xlink:href="#linearGradient3356"
       inkscape:collect="always" />
    <linearGradient
       y2="71.083618"
       x2="96.452263"
       y1="71.083618"
       x1="15.709868"
       gradientUnits="userSpaceOnUse"
       id="linearGradient4150"
       xlink:href="#linearGradient3356"
       inkscape:collect="always" />
    <linearGradient
       y2="71.083618"
       x2="96.452263"
       y1="71.083618"
       x1="15.709868"
       gradientUnits="userSpaceOnUse"
       id="linearGradient4152"
       xlink:href="#linearGradient3356"
       inkscape:collect="always" />
    <linearGradient
       y2="71.083618"
       x2="96.452263"
       y1="71.083618"
       x1="15.709868"
       gradientUnits="userSpaceOnUse"
       id="linearGradient4154"
       xlink:href="#linearGradient3356"
       inkscape:collect="always" />
    <linearGradient
       y2="71.083618"
       x2="96.452263"
       y1="71.083618"
       x1="15.709868"
       gradientUnits="userSpaceOnUse"
       id="linearGradient4156"
       xlink:href="#linearGradient3356"
       inkscape:collect="always" />
    <linearGradient
       y2="71.083618"
       x2="96.452263"
       y1="71.083618"
       x1="15.709868"
       gradientUnits="userSpaceOnUse"
       id="linearGradient4158"
       xlink:href="#linearGradient3356"
       inkscape:collect="always" />
    <linearGradient
       y2="71.083618"
       x2="96.452263"
       y1="71.083618"
       x1="15.709868"
       gradientUnits="userSpaceOnUse"
       id="linearGradient4160"
       xlink:href="#linearGradient3356"
       inkscape:collect="always" />
    <linearGradient
       y2="71.541405"
       x2="94.215775"
       y1="71.541405"
       x1="18.304047"
       gradientUnits="userSpaceOnUse"
       id="linearGradient4536"
       xlink:href="#linearGradient3356"
       inkscape:collect="always" />
    <linearGradient
       y2="71.541405"
       x2="94.215775"
       y1="71.541405"
       x1="18.304047"
       gradientUnits="userSpaceOnUse"
       id="linearGradient4538"
       xlink:href="#linearGradient3356"
       inkscape:collect="always" />
  </defs>
  <sodipodi:namedview
     units="px"
     inkscape:window-maximized="1"
     inkscape:window-y="-8"
     inkscape:window-x="-8"
     inkscape:window-height="1137"
     inkscape:window-width="1920"
     showgrid="false"
     inkscape:document-rotation="0"
     inkscape:current-layer="layer1"
     inkscape:document-units="mm"
     inkscape:cy="495.42007"
     inkscape:cx="920.44545"
     inkscape:zoom="0.49497475"
     inkscape:pageshadow="2"
     inkscape:pageopacity="0.0"
     borderopacity="1.0"
     bordercolor="#666666"
     pagecolor="#ffffff"
     id="base" />
  <metadata
     id="metadata5">
    <rdf:RDF>
      <cc:Work
         rdf:about="">
        <dc:format>image/svg+xml</dc:format>
        <dc:type
           rdf:resource="http://purl.org/dc/dcmitype/StillImage" />
        <dc:title></dc:title>
      </cc:Work>
    </rdf:RDF>
  </metadata>
  <g
     id="layer1"
     inkscape:groupmode="layer"
     inkscape:label="Layer 1">
    <g
       style="font-style:normal;font-variant:normal;font-weight:normal;font-stretch:normal;font-size:84.4253px;line-height:1.25;font-family:Delicious;-inkscape-font-specification:'Delicious, Normal';font-variant-ligatures:normal;font-variant-caps:normal;font-variant-numeric:normal;font-variant-east-asian:normal;letter-spacing:0px;word-spacing:0px;fill:#0c55b6;fill-opacity:1;stroke:none;stroke-width:2.11064;image-rendering:auto"
       id="text12"
       aria-label="FlowNet">
      <path
         id="path4540"
         style="font-style:normal;font-variant:normal;font-weight:normal;font-stretch:normal;font-size:84.4253px;font-family:Delicious;-inkscape-font-specification:'Delicious, Normal';font-variant-ligatures:normal;font-variant-caps:normal;font-variant-numeric:normal;font-variant-east-asian:normal;fill:#0c55b6;fill-opacity:1;stroke-width:2.11064"
         d="m 242.58843,104.79047 h -24.98989 v 53.18794 h 6.75402 v -24.82104 h 14.43673 v -5.82535 h -14.43673 v -16.96948 h 18.23587 z" />
      <path
         id="path4542"
         style="font-style:normal;font-variant:normal;font-weight:normal;font-stretch:normal;font-size:84.4253px;font-family:Delicious;-inkscape-font-specification:'Delicious, Normal';font-variant-ligatures:normal;font-variant-caps:normal;font-variant-numeric:normal;font-variant-east-asian:normal;fill:#0c55b6;fill-opacity:1;stroke-width:2.11064"
         d="m 258.30077,99.38725 h -6.24748 v 41.95937 c 0,4.81225 0.42213,12.07282 2.11064,16.63179 h 6.66959 c -1.6885,-5.48765 -2.53275,-10.80644 -2.53275,-16.63179 z" />
      <path
         id="path4544"
         style="font-style:normal;font-variant:normal;font-weight:normal;font-stretch:normal;font-size:84.4253px;font-family:Delicious;-inkscape-font-specification:'Delicious, Normal';font-variant-ligatures:normal;font-variant-caps:normal;font-variant-numeric:normal;font-variant-east-asian:normal;fill:#0c55b6;fill-opacity:1;stroke-width:2.11064"
         d="m 286.18882,120.40915 c 7.0073,0 10.04661,10.63759 10.04661,16.96949 0,6.33189 -3.03931,16.80063 -10.04661,16.80063 -7.0073,0 -10.04661,-10.46874 -10.04661,-16.80063 0,-6.3319 3.03931,-16.96949 10.04661,-16.96949 z m 0,-5.06552 c -11.39742,0 -16.46294,12.3261 -16.46294,22.03501 0,9.70891 5.14995,21.86615 16.46294,21.86615 11.31299,0 16.46293,-12.15724 16.46293,-21.86615 0,-9.70891 -5.06552,-22.03501 -16.46293,-22.03501 z" />
      <path
         id="path4546"
         style="font-style:normal;font-variant:normal;font-weight:normal;font-stretch:normal;font-size:84.4253px;font-family:Delicious;-inkscape-font-specification:'Delicious, Normal';font-variant-ligatures:normal;font-variant-caps:normal;font-variant-numeric:normal;font-variant-east-asian:normal;fill:#0c55b6;fill-opacity:1;stroke-width:2.11064"
         d="m 362.02648,116.61001 h -6.16305 c -2.02621,11.39742 -4.72782,22.62598 -8.3581,33.60127 l -8.78023,-33.60127 h -6.6696 l -8.02041,33.60127 -9.45563,-33.60127 h -6.75402 l 12.57937,41.3684 h 7.09172 l 5.6565,-21.10633 c 1.3508,-5.14994 2.3639,-12.66379 2.3639,-12.66379 0,0 1.18196,7.6827 2.53276,12.66379 0,0 3.79914,14.09903 5.74092,21.10633 h 6.83845 c 5.23437,-13.3392 9.03351,-27.18495 11.39742,-41.3684 z" />
      <path
         id="path4548"
         style="font-style:normal;font-variant:normal;font-weight:normal;font-stretch:normal;font-size:84.4253px;font-family:Delicious;-inkscape-font-specification:'Delicious, Normal';font-variant-ligatures:normal;font-variant-caps:normal;font-variant-numeric:normal;font-variant-east-asian:normal;fill:#0c55b6;fill-opacity:1;stroke-width:2.11064"
         d="m 403.38829,157.97841 v -53.18794 h -6.75402 v 33.26357 c 0,2.44833 0.16885,4.98109 0.42212,7.42942 L 379.0738,104.79047 h -8.94908 v 53.18794 h 6.75403 v -36.13403 c 0,-2.44833 -0.16886,-4.89667 -0.42213,-7.26058 l 20.00879,43.39461 z" />
      <path
         id="path4550"
         style="font-style:normal;font-variant:normal;font-weight:normal;font-stretch:normal;font-size:84.4253px;font-family:Delicious;-inkscape-font-specification:'Delicious, Normal';font-variant-ligatures:normal;font-variant-caps:normal;font-variant-numeric:normal;font-variant-east-asian:normal;fill:#0c55b6;fill-opacity:1;stroke-width:2.11064"
         d="m 439.66478,130.45576 h -17.98259 c 1.0131,-4.64339 4.30569,-10.04661 9.62448,-10.04661 5.3188,0 8.35811,5.31879 8.35811,10.04661 z m 6.75402,4.81224 c -0.0844,-1.43523 -0.0844,-2.87046 -0.16885,-4.30569 -0.50655,-7.76713 -5.9942,-15.61868 -14.3523,-15.61868 -11.05971,0 -17.56046,10.72202 -17.56046,20.85305 0,9.87776 3.88356,23.04811 15.95638,23.04811 4.81224,0 10.80644,-3.12374 14.43673,-6.24747 l -2.02621,-4.05242 c -2.70161,1.85736 -8.52696,5.23437 -11.73512,5.23437 -7.6827,0 -10.04661,-11.39742 -10.04661,-17.30719 0,-0.59097 0,-1.09753 0,-1.60408 z" />
      <path
         id="path4552"
         style="font-style:normal;font-variant:normal;font-weight:normal;font-stretch:normal;font-size:84.4253px;font-family:Delicious;-inkscape-font-specification:'Delicious, Normal';font-variant-ligatures:normal;font-variant-caps:normal;font-variant-numeric:normal;font-variant-east-asian:normal;fill:#0c55b6;fill-opacity:1;stroke-width:2.11064"
         d="m 473.66312,156.88088 -1.43523,-3.96799 c 0,0 -2.78604,1.18195 -4.89667,1.18195 -1.94178,0 -3.29259,-1.0131 -3.29259,-4.64339 v -27.94477 h 8.18926 v -4.89667 h -8.35811 v -7.345 h -5.90977 v 7.345 h -5.90977 v 4.13684 l 5.57207,0.75983 v 28.28247 c 0,7.09173 3.46144,9.45564 7.42942,9.45564 4.89667,0 8.61139,-2.36391 8.61139,-2.36391 z" />
    </g>
    <text
       style="font-style:normal;font-weight:normal;font-size:10.5833px;line-height:1.25;font-family:sans-serif;letter-spacing:0px;word-spacing:0px;white-space:pre;shape-inside:url(#rect16);fill:#000000;fill-opacity:1;stroke:none;"
       id="text14"
       xml:space="preserve" />
    <g
       style="font-style:normal;font-weight:normal;font-size:258.416px;line-height:1.25;font-family:sans-serif;letter-spacing:0px;word-spacing:0px;fill:none;fill-opacity:1;stroke:url(#linearGradient3398);stroke-width:6.46041;stroke-opacity:1"
       id="text947"
       aria-label="F">
      <path
         id="path4555"
         style="fill:none;fill-opacity:1;stroke:url(#linearGradient3398);stroke-width:6.46041;stroke-opacity:1"
         d="M 191.36481,78.875671 H 96.351509 v 52.995469 h 81.638251 v 22.20762 H 96.351509 v 90.47083 H 71.367932 V 56.668047 H 191.36481 Z" />
    </g>
    <g
       inkscape:export-ydpi="19.445087"
       inkscape:export-xdpi="19.445087"
       transform="matrix(2.0688312,0,0,2.0688312,-2.6518341,-5.9301781)"
       style="fill:none;fill-opacity:1;stroke:url(#linearGradient4538);stroke-opacity:1"
       id="g1383">
      <path
         style="fill:none;fill-opacity:1;stroke:url(#linearGradient4536);stroke-width:0.264583px;stroke-linecap:butt;stroke-linejoin:miter;stroke-opacity:1"
         d="M 36.081385,31.003266 24.588796,51.850287 18.441597,84.457169 33.943229,120.00402 48.643053,121.07309 86.862596,78.309972 87.664403,66.550111 93.544333,40.892237 94.078874,29.934188 71.895501,21.916101 Z"
         id="path1348" />
      <path
         style="fill:none;fill-opacity:1;stroke:url(#linearGradient4108);stroke-width:0.264583px;stroke-linecap:butt;stroke-linejoin:miter;stroke-opacity:1"
         d="M 18.441597,84.457169 35.814116,72.430041 24.588796,51.850287 59.333836,41.159506 71.895501,21.916101 93.544331,40.892237"
         id="path1350" />
      <path
         style="fill:none;fill-opacity:1;stroke:url(#linearGradient4110);stroke-width:0.264583px;stroke-linecap:butt;stroke-linejoin:miter;stroke-opacity:1"
         d="m 36.081385,31.003266 23.252451,10.15624 34.210495,-0.267269"
         id="path1352" />
      <path
         style="fill:none;fill-opacity:1;stroke:url(#linearGradient4112);stroke-width:0.264583px;stroke-linecap:butt;stroke-linejoin:miter;stroke-opacity:1"
         d="M 59.333836,41.159506 54.790252,53.453905 24.588796,51.850287 48.910324,68.15373 54.255714,53.721175 87.664403,66.550111"
         id="path1354" />
      <path
         style="fill:none;fill-opacity:1;stroke:url(#linearGradient4114);stroke-width:0.264583px;stroke-linecap:butt;stroke-linejoin:miter;stroke-opacity:1"
         d="M 59.333836,41.159506 87.664403,66.550111"
         id="path1356" />
      <path
         style="fill:none;fill-opacity:1;stroke:url(#linearGradient4116);stroke-width:0.264583px;stroke-linecap:butt;stroke-linejoin:miter;stroke-opacity:1"
         d="m 35.814116,72.430041 13.096208,-4.276312 -0.53454,9.621704 z"
         id="path1358" />
      <path
         style="fill:none;fill-opacity:1;stroke:url(#linearGradient4118);stroke-width:0.264583px;stroke-linecap:butt;stroke-linejoin:miter;stroke-opacity:1"
         d="M 18.441597,84.457169 35.546847,98.622455 48.375784,77.775431 60.670183,93.009796 67.084651,71.093694 48.910324,68.153729"
         id="path1360" />
      <path
         style="fill:none;fill-opacity:1;stroke:url(#linearGradient4120);stroke-width:0.264583px;stroke-linecap:butt;stroke-linejoin:miter;stroke-opacity:1"
         d="M 87.664403,66.550111 67.084651,71.093694 54.255714,53.721174"
         id="path1362" />
      <path
         style="fill:none;fill-opacity:1;stroke:url(#linearGradient4122);stroke-width:0.264583px;stroke-linecap:butt;stroke-linejoin:miter;stroke-opacity:1"
         d="M 60.670183,93.009796 86.862596,78.309972 67.084651,71.093694"
         id="path1364" />
      <path
         id="path3400"
         d="M 60.670183,93.009796 35.546847,98.622455 48.643053,121.07309 Z"
         style="fill:none;stroke:url(#linearGradient4124);stroke-width:0.264583px;stroke-linecap:butt;stroke-linejoin:miter;stroke-opacity:1" />
    </g>
    <g
       inkscape:export-ydpi="19.445087"
       inkscape:export-xdpi="19.445087"
       transform="matrix(2.0688312,0,0,2.0688312,-2.6518341,-5.9301781)"
       style="fill:url(#linearGradient3382);fill-opacity:1;stroke:none"
       id="g1331">
      <path
         d="M 40.527941,31.1369 A 4.312922,4.312922 0 0 1 36.215019,35.449822 4.312922,4.312922 0 0 1 31.902097,31.1369 4.312922,4.312922 0 0 1 36.215019,26.823978 4.312922,4.312922 0 0 1 40.527941,31.1369"
         style="fill:url(#linearGradient4126);fill-opacity:1;stroke:none;stroke-width:1.02451;stroke-miterlimit:4;stroke-dasharray:none;stroke-opacity:1"
         id="path949" />
      <path
         d="m 62.901698,41.159504 a 3.8351314,3.8351314 0 0 1 -3.835132,3.835131 3.8351314,3.8351314 0 0 1 -3.835131,-3.835131 3.8351314,3.8351314 0 0 1 3.835131,-3.835131 3.8351314,3.8351314 0 0 1 3.835132,3.835131"
         style="fill:url(#linearGradient4128);fill-opacity:1;stroke:none;stroke-width:0.911014;stroke-miterlimit:4;stroke-dasharray:none;stroke-opacity:1"
         id="path949-2" />
      <path
         d="m 75.71645,22.317005 a 3.9545791,3.9545791 0 0 1 -3.954579,3.954579 3.9545791,3.9545791 0 0 1 -3.954579,-3.954579 3.9545791,3.9545791 0 0 1 3.954579,-3.954579 3.9545791,3.9545791 0 0 1 3.954579,3.954579"
         style="fill:url(#linearGradient4130);fill-opacity:1;stroke:none;stroke-width:0.939388;stroke-miterlimit:4;stroke-dasharray:none;stroke-opacity:1"
         id="path949-8" />
      <path
         d="m 52.182543,67.084648 a 4.0740266,4.0740266 0 0 1 -4.074026,4.074027 4.0740266,4.0740266 0 0 1 -4.074027,-4.074027 4.0740266,4.0740266 0 0 1 4.074027,-4.074026 4.0740266,4.0740266 0 0 1 4.074026,4.074026"
         style="fill:url(#linearGradient4132);fill-opacity:1;stroke:none;stroke-width:0.967762;stroke-miterlimit:4;stroke-dasharray:none;stroke-opacity:1"
         id="path949-4" />
      <path
         d="M 50.973874,77.6418 A 2.9989974,2.9989974 0 0 1 47.974876,80.640797 2.9989974,2.9989974 0 0 1 44.975879,77.6418 2.9989974,2.9989974 0 0 1 47.974876,74.642802 2.9989974,2.9989974 0 0 1 50.973874,77.6418"
         style="fill:url(#linearGradient4134);fill-opacity:1;stroke:none;stroke-width:0.712395;stroke-miterlimit:4;stroke-dasharray:none;stroke-opacity:1"
         id="path949-9" />
      <path
         d="m 68.951869,71.360962 a 2.4017587,2.4017587 0 0 1 -2.401759,2.401759 2.4017587,2.4017587 0 0 1 -2.401759,-2.401759 2.4017587,2.4017587 0 0 1 2.401759,-2.401759 2.4017587,2.4017587 0 0 1 2.401759,2.401759"
         style="fill:url(#linearGradient4136);fill-opacity:1;stroke:none;stroke-width:0.570524;stroke-miterlimit:4;stroke-dasharray:none;stroke-opacity:1"
         id="path949-44" />
      <path
         d="m 89.770522,77.508163 a 2.6406543,2.6406543 0 0 1 -2.640654,2.640655 2.6406543,2.6406543 0 0 1 -2.640655,-2.640655 2.6406543,2.6406543 0 0 1 2.640655,-2.640654 2.6406543,2.6406543 0 0 1 2.640654,2.640654"
         style="fill:url(#linearGradient4138);fill-opacity:1;stroke:none;stroke-width:0.627273;stroke-miterlimit:4;stroke-dasharray:none;stroke-opacity:1"
         id="path949-1" />
      <path
         d="m 21.707864,84.457169 a 2.9989977,2.9989977 0 0 1 -2.998998,2.998997 2.9989977,2.9989977 0 0 1 -2.998998,-2.998997 2.9989977,2.9989977 0 0 1 2.998998,-2.998998 2.9989977,2.9989977 0 0 1 2.998998,2.998998"
         style="fill:url(#linearGradient4140);fill-opacity:1;stroke:none;stroke-width:0.712396;stroke-miterlimit:4;stroke-dasharray:none;stroke-opacity:1"
         id="path949-9-6" />
      <path
         d="m 38.278577,120.80582 a 2.9989977,2.9989977 0 0 1 -2.998998,2.99899 2.9989977,2.9989977 0 0 1 -2.998998,-2.99899 2.9989977,2.9989977 0 0 1 2.998998,-2.999 2.9989977,2.9989977 0 0 1 2.998998,2.999"
         style="fill:url(#linearGradient4142);fill-opacity:1;stroke:none;stroke-width:0.712396;stroke-miterlimit:4;stroke-dasharray:none;stroke-opacity:1"
         id="path949-9-68" />
      <path
         d="m 63.40191,93.009789 a 2.9989977,2.9989977 0 0 1 -2.998998,2.998997 2.9989977,2.9989977 0 0 1 -2.998998,-2.998997 2.9989977,2.9989977 0 0 1 2.998998,-2.998998 2.9989977,2.9989977 0 0 1 2.998998,2.998998"
         style="fill:url(#linearGradient4144);fill-opacity:1;stroke:none;stroke-width:0.712396;stroke-miterlimit:4;stroke-dasharray:none;stroke-opacity:1"
         id="path949-9-1" />
      <path
         d="m 57.78925,53.988445 a 2.9989977,2.9989977 0 0 1 -2.998997,2.998998 2.9989977,2.9989977 0 0 1 -2.998998,-2.998998 2.9989977,2.9989977 0 0 1 2.998998,-2.998997 2.9989977,2.9989977 0 0 1 2.998997,2.998997"
         style="fill:url(#linearGradient4146);fill-opacity:1;stroke:none;stroke-width:0.712396;stroke-miterlimit:4;stroke-dasharray:none;stroke-opacity:1"
         id="path949-9-63" />
      <path
         d="m 28.122333,52.117554 a 2.9989979,2.9989979 0 0 1 -2.998998,2.998998 2.9989979,2.9989979 0 0 1 -2.998998,-2.998998 2.9989979,2.9989979 0 0 1 2.998998,-2.998998 2.9989979,2.9989979 0 0 1 2.998998,2.998998"
         style="fill:url(#linearGradient4148);fill-opacity:1;stroke:none;stroke-width:0.712396;stroke-miterlimit:4;stroke-dasharray:none;stroke-opacity:1"
         id="path949-9-6-3" />
      <path
         d="m 38.813115,98.355186 a 2.9989979,2.9989979 0 0 1 -2.998998,2.998994 2.9989979,2.9989979 0 0 1 -2.998997,-2.998994 2.9989979,2.9989979 0 0 1 2.998997,-2.998997 2.9989979,2.9989979 0 0 1 2.998998,2.998997"
         style="fill:url(#linearGradient4150);fill-opacity:1;stroke:none;stroke-width:0.712396;stroke-miterlimit:4;stroke-dasharray:none;stroke-opacity:1"
         id="path949-9-6-8" />
      <path
         d="m 89.770522,67.084656 a 2.6406543,2.6406543 0 0 1 -2.640654,2.640654 2.6406543,2.6406543 0 0 1 -2.640655,-2.640654 2.6406543,2.6406543 0 0 1 2.640655,-2.640655 2.6406543,2.6406543 0 0 1 2.640654,2.640655"
         style="fill:url(#linearGradient4152);fill-opacity:1;stroke:none;stroke-width:0.627274;stroke-miterlimit:4;stroke-dasharray:none;stroke-opacity:1"
         id="path949-1-0" />
      <path
         d="m 96.14243,40.758606 a 2.9989974,2.9989974 0 0 1 -2.998997,2.998997 2.9989974,2.9989974 0 0 1 -2.998998,-2.998997 2.9989974,2.9989974 0 0 1 2.998998,-2.998997 2.9989974,2.9989974 0 0 1 2.998997,2.998997"
         style="fill:url(#linearGradient4154);fill-opacity:1;stroke:none;stroke-width:0.712397;stroke-miterlimit:4;stroke-dasharray:none;stroke-opacity:1"
         id="path949-1-7" />
      <path
         d="m 96.452262,30.201456 a 2.6406543,2.6406543 0 0 1 -2.640655,2.640654 2.6406543,2.6406543 0 0 1 -2.640654,-2.640654 2.6406543,2.6406543 0 0 1 2.640654,-2.640654 2.6406543,2.6406543 0 0 1 2.640655,2.640654"
         style="fill:url(#linearGradient4156);fill-opacity:1;stroke:none;stroke-width:0.627274;stroke-miterlimit:4;stroke-dasharray:none;stroke-opacity:1"
         id="path949-1-4" />
      <path
         d="m 39.075013,72.162773 a 2.9989979,2.9989979 0 0 1 -2.998998,2.998998 2.9989979,2.9989979 0 0 1 -2.998997,-2.998998 2.9989979,2.9989979 0 0 1 2.998997,-2.998998 2.9989979,2.9989979 0 0 1 2.998998,2.998998"
         style="fill:url(#linearGradient4158);fill-opacity:1;stroke:none;stroke-width:0.712396;stroke-miterlimit:4;stroke-dasharray:none;stroke-opacity:1"
         id="path949-9-6-3-0" />
      <path
         d="m 50.85443,120.6722 a 2.8795497,2.8795497 0 0 1 -2.87955,2.87955 2.8795497,2.8795497 0 0 1 -2.87955,-2.87955 2.8795497,2.8795497 0 0 1 2.87955,-2.87955 2.8795497,2.8795497 0 0 1 2.87955,2.87955"
         style="fill:url(#linearGradient4160);fill-opacity:1;stroke:none;stroke-width:0.68402;stroke-miterlimit:4;stroke-dasharray:none;stroke-opacity:1"
         id="path949-8-7" />
    </g>
  </g>
</svg>
