<?xml version="1.0" encoding="UTF-8" standalone="no"?>
<svg
   xmlns:dc="http://purl.org/dc/elements/1.1/"
   xmlns:cc="http://creativecommons.org/ns#"
   xmlns:rdf="http://www.w3.org/1999/02/22-rdf-syntax-ns#"
   xmlns:svg="http://www.w3.org/2000/svg"
   xmlns="http://www.w3.org/2000/svg"
   viewBox="0 0 272.12 79.373337"
   height="79.373337"
   width="272.12"
   xml:space="preserve"
   id="svg2"
   version="1.1"><metadata
     id="metadata8"><rdf:RDF><cc:Work
         rdf:about=""><dc:format>image/svg+xml</dc:format><dc:type
           rdf:resource="http://purl.org/dc/dcmitype/StillImage" /></cc:Work></rdf:RDF></metadata><defs
     id="defs6" /><g
     transform="matrix(1.3333333,0,0,-1.3333333,0,79.373333)"
     id="g10"><g
       transform="scale(0.1)"
       id="g12"><path
         id="path14"
         style="fill:#ffffff;fill-opacity:1;fill-rule:nonzero;stroke:none"
         d="M 1955.9,510.234 H 170.074 V 85.0391 H 1658.27 V 289.129 h 297.63 v 221.105" /><path
         id="path16"
         style="fill:#231f20;fill-opacity:1;fill-rule:nonzero;stroke:none"
         d="m 876.383,452.484 c -73.235,0 -130.992,-50.214 -142.403,-119.394 v 83.769 c 0,21.559 -9.257,30.817 -30.82,30.817 H 630.551 V 338.648 l -62.09,84.348 c -13.5,17.906 -26.828,24.68 -49.262,24.68 H 198.422 v -74.274 c 0,-21.23 9.105,-30.351 30.34,-30.351 h 48 V 198.945 c 0,-21.523 9.238,-30.8 30.82,-30.8 h 78.57 v 174.906 h 66.297 V 198.945 c 0,-21.523 9.27,-30.8 30.821,-30.8 h 72.632 v 109.023 l 61.864,-84.355 c 13.504,-17.911 26.836,-24.668 49.285,-24.668 h 66.929 v 113.632 c 11.258,-70 67.543,-118.418 142.403,-118.418 81.879,0 144.597,62.696 144.597,144.555 0,83.867 -60.714,144.57 -144.597,144.57 m 0,-187.679 c -23.809,0 -43.121,19.297 -43.121,43.109 0,23.809 19.312,43.125 43.121,43.125 23.82,0 43.129,-19.316 43.129,-43.125 0,-23.812 -19.309,-43.109 -43.129,-43.109" /><path
         id="path18"
         style="fill:#231f20;fill-opacity:1;fill-rule:nonzero;stroke:none"
         d="m 1140.15,287.281 c -5.32,1.199 -10.97,1.543 -16.96,1.543 -19.34,0 -28.24,-9.918 -28.24,-30.992 v -1.719 h -14.55 v -13.496 h 14.55 v -74.492 h 19.34 v 74.492 h 21.06 v 13.496 h -21.4 v 2.403 c 0,10.8 4.27,15.605 14.56,15.605 2.91,0 6.67,-0.351 11.64,-1.211 z m 45.41,-28.765 c -24.84,0 -41.94,-18.145 -41.94,-46.407 0,-28.242 16.94,-46.386 41.94,-46.386 25.01,0 42.11,18.144 42.11,46.386 0,28.262 -17.1,46.407 -42.11,46.407 m 0,-14.375 c 12.84,0 21.07,-11.465 21.07,-32.032 0,-20.546 -8.23,-31.855 -21.07,-31.855 -13.03,0 -20.91,11.152 -20.91,31.855 0,20.743 7.88,32.032 20.91,32.032 m 105.64,14.199 c -1.71,0.176 -3.25,0.176 -4.62,0.176 -12.33,0 -20.38,-7.012 -24.83,-21.387 l -0.01,18.984 h -17.96 v -87.988 h 19.67 v 43.652 c 0.02,17.305 9.26,27.754 23.47,27.754 0.85,0 2.41,0 4.28,-0.176 z m 51.3,-90.215 h 20.01 v 118.813 h -20.01 z m 48.39,102.402 h 20.01 v 16.411 h -20.01 z m 0,-102.402 h 20.01 v 87.988 h -20.01 z m 95.67,119.156 c -5.32,1.199 -10.95,1.543 -16.96,1.543 -19.33,0 -28.21,-9.918 -28.21,-30.992 v -1.719 h -14.56 v -13.496 h 14.56 v -74.492 h 19.32 v 74.492 h 21.05 v 13.496 h -21.41 v 2.403 c 0,10.8 4.28,15.605 14.57,15.605 2.91,0 6.68,-0.351 11.64,-1.211 z m 20.37,-78.062 h 63.01 v 3.086 c 0,28.593 -16.41,46.211 -41.94,46.211 -25.01,0 -42.11,-18.653 -42.11,-46.563 0,-27.93 16.94,-46.23 42.64,-46.23 20.03,0 34.23,9.765 40.56,27.734 l -19,2.051 c -3.23,-9.59 -10.96,-14.903 -20.55,-14.903 -13.87,0 -22.61,10.118 -22.61,28.106 z m 0.36,12.304 c 1.2,14.747 9.24,22.969 20.71,22.969 13.04,0 20.56,-7.89 21.08,-22.969 h -41.79" /><path
         id="path20"
         style="fill:#231f20;fill-opacity:1;fill-rule:nonzero;stroke:none"
         d="m 1088.51,431.859 h 20.01 v 16.422 h -20.01 z m 0,-102.382 h 20.01 v 87.988 h -20.01 z m 51.13,87.988 v -87.988 h 19.33 v 50.332 c 0.02,15.246 8.93,25 20.4,25 9.59,0 14.89,-6.504 14.89,-19.18 v -56.152 h 19.33 v 56.328 c 0,22.773 -9.41,34.062 -28.58,34.062 -11.8,0 -20.88,-5.82 -27.21,-17.461 l -0.02,15.059 z m 97.45,0 v -87.988 h 19.33 v 50.332 c 0.02,15.246 8.94,25 20.4,25 9.59,0 14.89,-6.504 14.89,-19.18 v -56.152 h 19.33 v 56.328 c 0,22.773 -9.4,34.062 -28.56,34.062 -11.83,0 -20.89,-5.82 -27.24,-17.461 l -0.02,15.059 z m 133.79,2.402 c -24.84,0 -41.92,-18.133 -41.92,-46.394 0,-28.274 16.91,-46.399 41.92,-46.399 25,0 42.12,18.125 42.12,46.399 0,28.261 -17.12,46.394 -42.12,46.394 m 0,-14.375 c 12.85,0 21.08,-11.465 21.08,-32.019 0,-20.559 -8.23,-31.868 -21.08,-31.868 -13.01,0 -20.89,11.133 -20.89,31.868 0,20.722 7.88,32.019 20.89,32.019 m 81.67,-76.015 h 17.98 l 31.15,87.988 h -16.26 l -21.91,-66.953 -21.74,66.953 h -20.03 z m 61.35,65.226 18.47,-2.238 c 1.88,9.082 8.74,13.711 20.55,13.711 12.34,0 18.33,-5.301 18.33,-16.446 v -4.628 h -1.87 c -38.9,0 -57.88,-10.254 -57.88,-31.504 0,-15.391 11.81,-26.348 30.29,-26.348 13.2,0 23.83,6.152 29.81,17.441 0.17,-5.644 0.69,-10.625 1.88,-15.214 h 19.68 c -1.9,4.589 -2.57,10.429 -2.57,17.441 v 38.379 c 0,23.965 -10.1,34.57 -35.6,34.57 -23.31,0 -37.16,-8.554 -41.09,-25.164 m 57.35,-21.398 v -6.328 c 0,-14.403 -10.27,-25.536 -23.12,-25.536 -9.77,0 -15.76,5.321 -15.76,13.192 0,12.344 11.47,18.672 34.44,18.672 z m 68.28,68.468 -18.49,-1.531 -0.66,-22.777 h -15.25 v -13.516 h 14.72 v -44.023 c 0,-22.93 6.67,-32.852 27.72,-32.852 4.62,0 9.25,0.684 14.05,1.711 v 15.223 c -3.43,-0.86 -6.68,-1.192 -9.77,-1.192 -10.44,0 -12.32,5.645 -12.32,18.489 v 42.644 h 19.68 v 13.516 h -19.68 z m 42.99,-9.914 h 20.01 v 16.422 h -20.01 z m 0,-102.382 h 20.01 v 87.988 h -20.01 z m 79.83,90.39 c -24.84,0 -41.94,-18.133 -41.94,-46.394 0,-28.274 16.93,-46.399 41.94,-46.399 25,0 42.12,18.125 42.12,46.399 0,28.261 -17.12,46.394 -42.12,46.394 m 0,-14.375 c 12.86,0 21.07,-11.465 21.07,-32.019 0,-20.559 -8.21,-31.868 -21.07,-31.868 -13.02,0 -20.89,11.133 -20.89,31.868 0,20.722 7.87,32.019 20.89,32.019 m 60.16,11.973 v -87.988 h 19.34 v 50.332 c 0.02,15.246 8.92,25 20.39,25 9.59,0 14.9,-6.504 14.9,-19.18 v -56.152 h 19.33 v 56.328 c 0,22.773 -9.41,34.062 -28.58,34.062 -11.81,0 -20.89,-5.82 -27.22,-17.461 l -0.02,15.059 h -18.14" /></g></g></svg>